<svg width="245" height="272" viewBox="0 0 245 272" fill="none" xmlns="http://www.w3.org/2000/svg">
<path d="M94.1839 1.07219C86.5737 13.5543 82.6588 27.3479 82.2095 41.1364L74.2387 36.2767C73.6187 35.8987 72.844 36.0735 72.4778 36.674C64.8677 49.1561 60.9528 62.9498 60.5035 76.7382L52.5327 71.8785C51.9127 71.5005 51.138 71.6754 50.7718 72.2759C43.1616 84.758 39.2468 98.5517 38.7975 112.34L30.8267 107.48C30.2067 107.102 29.4319 107.277 29.0658 107.878C4.77078 147.726 18.4774 200.565 59.6156 225.646C100.754 250.727 154.002 238.711 178.297 198.862C178.663 198.262 178.464 197.493 177.844 197.115L169.873 192.255C181.924 185.54 192.393 175.742 200.003 163.26C200.369 162.66 200.17 161.891 199.55 161.513L191.579 156.653C203.63 149.938 214.099 140.141 221.709 127.658C222.075 127.058 221.876 126.289 221.256 125.911L213.285 121.051C225.336 114.337 235.805 104.539 243.415 92.0566C243.781 91.4561 243.582 90.6873 242.962 90.3093L95.9447 0.674803C95.3248 0.296826 94.55 0.471664 94.1839 1.07219ZM74.0382 39.0963L82.1418 44.037C82.1777 66.594 91.2337 89.0019 107.974 105.68L63.0276 78.2771C63.2677 64.8319 66.8143 51.3432 74.0382 39.0963ZM186.419 156.449C161.426 168.748 130.373 168.173 104.335 152.298C78.2972 136.423 63.5627 109.082 63.0485 81.2318L186.419 156.449ZM164.713 192.051C139.72 204.35 108.667 203.774 82.6292 187.899C56.5912 172.024 41.8567 144.683 41.3424 116.834L164.713 192.051ZM84.7545 45.6299L208.125 120.847C183.132 133.146 152.079 132.571 126.041 116.696C100.003 100.821 85.2687 73.4797 84.7545 45.6299ZM52.3321 74.6982L60.4358 79.6389C60.4717 102.196 69.5277 124.604 86.268 141.282L41.3216 113.879C41.5617 100.434 45.1083 86.9451 52.3321 74.6982ZM175.429 198.585C151.534 236.382 100.467 247.611 60.9232 223.501C21.3791 199.392 7.97097 148.853 30.6261 110.3L38.7298 115.241C38.7775 144.454 53.9552 173.359 81.2773 190.017C108.599 206.675 141.291 206.955 167.237 193.59L175.429 198.585ZM197.135 162.983C189.557 175.014 179.191 184.345 167.349 190.716L122.402 163.313C144.922 170.512 168.963 168.342 189.031 158.042L197.135 162.983ZM218.841 127.381C211.263 139.412 200.897 148.743 189.055 155.114L144.108 127.711C166.628 134.91 190.669 132.74 210.737 122.44L218.841 127.381ZM240.547 91.779C232.969 103.81 222.603 113.141 210.761 119.513L84.7336 42.6753C84.9737 29.23 88.5203 15.7414 95.7442 3.49444L240.547 91.779Z" fill="#939F7C"/>
</svg>
