<svg width="133" height="272" viewBox="0 0 133 272" fill="none" xmlns="http://www.w3.org/2000/svg">
<path d="M109.184 1.07231C101.574 13.5544 97.6588 27.3481 97.2095 41.1365L89.2387 36.2768C88.6187 35.8988 87.844 36.0737 87.4778 36.6742C79.8677 49.1563 75.9528 62.9499 75.5035 76.7383L67.5327 71.8786C66.9127 71.5007 66.138 71.6755 65.7718 72.276C58.1616 84.7581 54.2468 98.5518 53.7975 112.34L45.8267 107.48C45.2067 107.103 44.4319 107.277 44.0658 107.878C19.7708 147.726 33.4774 200.565 74.6156 225.646C115.754 250.728 169.002 238.711 193.297 198.862C193.663 198.262 193.464 197.493 192.844 197.115L184.873 192.255C196.924 185.54 207.393 175.743 215.003 163.26C215.369 162.66 215.17 161.891 214.55 161.513L206.579 156.653C218.63 149.939 229.099 140.141 236.709 127.659C237.075 127.058 236.876 126.289 236.256 125.911L228.285 121.052C240.336 114.337 250.805 104.539 258.415 92.0567C258.781 91.4562 258.582 90.6874 257.962 90.3094L110.945 0.674925C110.325 0.296948 109.55 0.471786 109.184 1.07231ZM89.0382 39.0964L97.1418 44.0371C97.1777 66.5941 106.234 89.002 122.974 105.681L78.0276 78.2772C78.2677 64.832 81.8143 51.3434 89.0382 39.0964ZM201.419 156.449C176.426 168.748 145.373 168.173 119.335 152.298C93.2972 136.423 78.5627 109.082 78.0485 81.2319L201.419 156.449ZM179.713 192.051C154.72 204.35 123.667 203.775 97.6292 187.9C71.5912 172.025 56.8567 144.684 56.3424 116.834L179.713 192.051ZM99.7545 45.63L223.125 120.847C198.132 133.146 167.079 132.571 141.041 116.696C115.003 100.821 100.269 73.4798 99.7545 45.63ZM67.3321 74.6983L75.4358 79.639C75.4717 102.196 84.5277 124.604 101.268 141.282L56.3216 113.879C56.5617 100.434 60.1083 86.9452 67.3321 74.6983ZM190.429 198.585C166.534 236.382 115.467 247.611 75.9232 223.501C36.3791 199.392 22.971 148.854 45.6261 110.3L53.7298 115.241C53.7775 144.454 68.9552 173.359 96.2773 190.017C123.599 206.675 156.291 206.955 182.237 193.59L190.429 198.585ZM212.135 162.983C204.557 175.014 194.191 184.345 182.349 190.716L137.402 163.313C159.922 170.512 183.963 168.342 204.031 158.042L212.135 162.983ZM233.841 127.381C226.263 139.412 215.897 148.743 204.055 155.115L159.108 127.711C181.628 134.91 205.669 132.74 225.737 122.44L233.841 127.381ZM255.547 91.7791C247.969 103.81 237.603 113.141 225.761 119.513L99.7336 42.6754C99.9737 29.2301 103.52 15.7415 110.744 3.49456L255.547 91.7791Z" fill="#939F7C"/>
</svg>
