<svg width="240" height="300" viewBox="0 0 240 300" fill="none" xmlns="http://www.w3.org/2000/svg">
<path d="M185.985 77.8311L50.2415 56.8512C49.6864 56.7413 49.1321 57.0437 48.832 57.5199C48.5318 57.9962 48.5332 58.6146 48.8513 59.0897L72.8709 94.9562L8.21063 84.9991C7.65548 84.8892 7.10125 85.1915 6.80107 85.6678C6.5009 86.1441 6.50227 86.7624 6.82041 87.2375L30.84 123.104L-33.7728 113.115C-34.3279 113.005 -34.8821 113.308 -35.1823 113.784C-35.4825 114.26 -35.4811 114.878 -35.163 115.354L-11.1433 151.22L-75.8036 141.263C-76.3588 141.153 -76.913 141.455 -77.2132 141.932C-77.5134 142.408 -77.512 143.026 -77.1938 143.501L26.2655 297.989C26.5837 298.464 27.155 298.701 27.7097 298.604C27.8839 298.556 28.1057 298.477 28.2482 298.381C28.5332 298.191 28.7545 297.905 28.8329 297.508L44.245 233.927L68.2964 269.841C68.6146 270.316 69.1858 270.553 69.7405 270.457C69.9148 270.409 70.1366 270.329 70.2791 270.234C70.564 270.043 70.7854 269.757 70.8638 269.36L86.2758 205.779L110.327 241.693C110.645 242.168 111.217 242.405 111.771 242.309C111.946 242.261 112.167 242.181 112.31 242.086C112.595 241.895 112.816 241.609 112.895 241.212L128.307 177.631L152.358 213.545C152.676 214.02 153.248 214.257 153.802 214.161C153.977 214.113 154.198 214.033 154.341 213.938C154.626 213.747 154.847 213.461 154.926 213.065L187.21 79.557C187.288 79.1604 187.24 78.78 187.017 78.4474C186.795 78.1149 186.398 77.8303 185.985 77.8311ZM11.0241 88.2757L75.0818 98.1548L98.7833 133.546L34.7256 123.667L11.0241 88.2757ZM78.8724 98.7815L142.01 108.52L126.975 170.61L78.8724 98.7815ZM36.889 126.898L100.027 136.636L84.9919 198.726L36.889 126.898ZM-31.0068 116.424L33.0509 126.303L56.7524 161.694L-7.30526 151.815L-31.0068 116.424ZM57.9959 164.784L42.961 226.874L-5.14191 155.045L57.9959 164.784ZM26.8424 293.611L-72.9901 144.54L-8.93249 154.419L42.0973 230.617L26.8424 293.611ZM68.8258 265.495L45.1243 230.104L60.3792 167.11L84.0807 202.501L68.8258 265.495ZM110.857 237.348L87.1552 201.956L102.41 138.962L126.112 174.353L110.857 237.348ZM152.84 209.232L129.139 173.84L145.147 107.657C145.226 107.261 145.177 106.88 144.955 106.548C144.732 106.215 144.367 105.978 144.002 105.947L76.709 95.5512L53.0075 60.1597L184.041 80.3719L152.84 209.232Z" fill="#939F7C"/>
</svg>
