<svg width="26" height="18" viewBox="0 0 26 18" fill="none" xmlns="http://www.w3.org/2000/svg">
<g clip-path="url(#clip0_417_1147)">
<path d="M16.75 2.24998C16.947 2.053 17.1808 1.89674 17.4382 1.79014C17.6956 1.68353 17.9714 1.62866 18.25 1.62866C18.5286 1.62866 18.8044 1.68353 19.0618 1.79014C19.3192 1.89674 19.553 2.053 19.75 2.24998C19.947 2.44697 20.1032 2.68082 20.2098 2.93819C20.3165 3.19556 20.3713 3.47141 20.3713 3.74998C20.3713 4.02856 20.3165 4.30441 20.2098 4.56178C20.1032 4.81915 19.947 5.053 19.75 5.24998L9.625 15.375L5.5 16.5L6.625 12.375L16.75 2.24998Z" stroke="#E9E4D4" stroke-width="1.66667" stroke-linecap="round" stroke-linejoin="round"/>
</g>
<defs>
<clipPath id="clip0_417_1147">
<rect width="18" height="18" fill="white" transform="translate(4)"/>
</clipPath>
</defs>
</svg>
