<svg width="222" height="24" viewBox="0 0 222 24" fill="none" xmlns="http://www.w3.org/2000/svg">
<path d="M12 22C17.523 22 22 17.523 22 12C22 6.477 17.523 2 12 2C6.477 2 2 6.477 2 12C2 17.523 6.477 22 12 22Z" stroke="#393E30" stroke-width="1.5" stroke-linecap="round" stroke-linejoin="round"/>
<path d="M13.5 9.17001C13.0476 9.01061 12.5636 8.96201 12.0885 9.02829C11.6134 9.09457 11.1612 9.27381 10.7697 9.55095C10.3782 9.8281 10.0588 10.1951 9.83844 10.6211C9.61805 11.0472 9.50304 11.5198 9.50304 11.9995C9.50304 12.4792 9.61805 12.9519 9.83844 13.3779C10.0588 13.8039 10.3782 14.1709 10.7697 14.4481C11.1612 14.7252 11.6134 14.9044 12.0885 14.9707C12.5636 15.037 13.0476 14.9884 13.5 14.829" stroke="#393E30" stroke-width="1.5" stroke-linecap="round" stroke-linejoin="round"/>
<path d="M38.848 19.192C38.0053 19.192 37.232 19.0427 36.528 18.744C35.824 18.4347 35.2107 18.008 34.688 17.464C34.176 16.9093 33.776 16.2587 33.488 15.512C33.2 14.7653 33.056 13.944 33.056 13.048C33.056 12.152 33.2 11.3307 33.488 10.584C33.776 9.83733 34.176 9.18667 34.688 8.632C35.2107 8.07733 35.824 7.65067 36.528 7.352C37.232 7.04267 38.0053 6.888 38.848 6.888C39.6587 6.888 40.384 7.032 41.024 7.32C41.6747 7.608 42.2187 7.98133 42.656 8.44C43.104 8.888 43.424 9.36267 43.616 9.864L42.416 10.392C42.1173 9.69867 41.6587 9.144 41.04 8.728C40.432 8.30133 39.7013 8.088 38.848 8.088C37.9733 8.088 37.1947 8.296 36.512 8.712C35.8293 9.128 35.296 9.70933 34.912 10.456C34.528 11.192 34.336 12.056 34.336 13.048C34.336 14.0293 34.528 14.8933 34.912 15.64C35.296 16.3867 35.8293 16.968 36.512 17.384C37.1947 17.7893 37.9733 17.992 38.848 17.992C39.7013 17.992 40.432 17.784 41.04 17.368C41.6587 16.952 42.1173 16.3973 42.416 15.704L43.616 16.232C43.424 16.7227 43.104 17.1973 42.656 17.656C42.2187 18.104 41.6747 18.472 41.024 18.76C40.384 19.048 39.6587 19.192 38.848 19.192ZM49.5918 19.192C48.7811 19.192 48.0451 19 47.3838 18.616C46.7224 18.2213 46.1944 17.688 45.7998 17.016C45.4158 16.3333 45.2238 15.56 45.2238 14.696C45.2238 13.8427 45.4158 13.08 45.7998 12.408C46.1838 11.736 46.7011 11.208 47.3518 10.824C48.0131 10.4293 48.7598 10.232 49.5918 10.232C50.4238 10.232 51.1651 10.424 51.8158 10.808C52.4771 11.192 52.9944 11.72 53.3678 12.392C53.7518 13.064 53.9438 13.832 53.9438 14.696C53.9438 15.5707 53.7464 16.3493 53.3518 17.032C52.9571 17.704 52.4291 18.232 51.7678 18.616C51.1171 19 50.3918 19.192 49.5918 19.192ZM49.5918 17.992C50.1678 17.992 50.6851 17.848 51.1438 17.56C51.6131 17.272 51.9811 16.8773 52.2478 16.376C52.5251 15.8747 52.6638 15.3147 52.6638 14.696C52.6638 14.0773 52.5251 13.5227 52.2478 13.032C51.9811 12.5413 51.6131 12.152 51.1438 11.864C50.6851 11.576 50.1678 11.432 49.5918 11.432C49.0158 11.432 48.4931 11.576 48.0238 11.864C47.5651 12.152 47.1971 12.5413 46.9198 13.032C46.6424 13.5227 46.5038 14.0773 46.5038 14.696C46.5038 15.3147 46.6424 15.8747 46.9198 16.376C47.1971 16.8773 47.5651 17.272 48.0238 17.56C48.4931 17.848 49.0158 17.992 49.5918 17.992ZM56.0601 22.2V10.424H57.2601V12.344L57.0681 12.008C57.4095 11.464 57.8628 11.032 58.4281 10.712C59.0041 10.392 59.6601 10.232 60.3961 10.232C61.2068 10.232 61.9268 10.4293 62.5561 10.824C63.1961 11.208 63.6975 11.736 64.0601 12.408C64.4335 13.08 64.6201 13.848 64.6201 14.712C64.6201 15.5653 64.4335 16.3333 64.0601 17.016C63.6975 17.688 63.1961 18.2213 62.5561 18.616C61.9268 19 61.2068 19.192 60.3961 19.192C59.6601 19.192 58.9935 19.0267 58.3961 18.696C57.8095 18.3547 57.3668 17.8747 57.0681 17.256L57.2601 17.08V22.2H56.0601ZM60.3321 17.992C60.9081 17.992 61.4201 17.848 61.8681 17.56C62.3268 17.272 62.6841 16.8827 62.9401 16.392C63.2068 15.8907 63.3401 15.3307 63.3401 14.712C63.3401 14.0827 63.2068 13.5227 62.9401 13.032C62.6841 12.5413 62.3268 12.152 61.8681 11.864C61.4201 11.576 60.9081 11.432 60.3321 11.432C59.7561 11.432 59.2335 11.576 58.7641 11.864C58.3055 12.152 57.9375 12.5467 57.6601 13.048C57.3935 13.5387 57.2601 14.0933 57.2601 14.712C57.2601 15.3307 57.3935 15.8907 57.6601 16.392C57.9375 16.8827 58.3055 17.272 58.7641 17.56C59.2335 17.848 59.7561 17.992 60.3321 17.992ZM66.7518 22.52C66.5811 22.52 66.4051 22.504 66.2238 22.472C66.0531 22.4507 65.8824 22.408 65.7118 22.344V21.224C65.8184 21.2347 65.9518 21.2507 66.1118 21.272C66.2824 21.304 66.4531 21.32 66.6238 21.32C67.1464 21.32 67.5464 21.208 67.8238 20.984C68.1011 20.7707 68.3731 20.3547 68.6398 19.736L69.1838 18.456L69.1518 19.512L65.5198 10.424H66.8158L69.7918 17.928H69.4557L72.4158 10.424H73.7438L69.8238 20.088C69.6531 20.504 69.4344 20.8987 69.1678 21.272C68.9118 21.6453 68.5864 21.944 68.1918 22.168C67.7971 22.4027 67.3171 22.52 66.7518 22.52ZM75.1539 19V10.424H76.3539V11.832L76.1939 11.624C76.3965 11.2187 76.7005 10.8987 77.1059 10.664C77.5219 10.4293 78.0232 10.312 78.6099 10.312H79.1539V11.512H78.4019C77.7832 11.512 77.2872 11.704 76.9139 12.088C76.5405 12.472 76.3539 13.016 76.3539 13.72V19H75.1539ZM80.5601 19V10.424H81.7601V19H80.5601ZM80.5601 8.84V7.08H81.7601V8.84H80.5601ZM88.2804 22.52C87.6937 22.52 87.1497 22.4293 86.6484 22.248C86.1577 22.0667 85.731 21.816 85.3684 21.496C85.0164 21.1867 84.7444 20.824 84.5524 20.408L85.6564 19.816C85.827 20.2213 86.131 20.5733 86.5684 20.872C87.0057 21.1707 87.5657 21.32 88.2484 21.32C88.771 21.32 89.251 21.2187 89.6884 21.016C90.1257 20.8133 90.4777 20.5147 90.7444 20.12C91.011 19.7253 91.1444 19.24 91.1444 18.664V16.76L91.3364 16.936C91.0377 17.5547 90.595 18.0347 90.0084 18.376C89.4217 18.7067 88.7817 18.872 88.0884 18.872C87.2884 18.872 86.5684 18.68 85.9284 18.296C85.2884 17.912 84.7817 17.3947 84.4084 16.744C84.0457 16.0827 83.8644 15.352 83.8644 14.552C83.8644 13.7413 84.0457 13.0107 84.4084 12.36C84.7817 11.7093 85.283 11.192 85.9124 10.808C86.5524 10.424 87.2777 10.232 88.0884 10.232C88.7817 10.232 89.411 10.392 89.9764 10.712C90.5524 11.032 91.0057 11.464 91.3364 12.008L91.1444 12.344V10.424H92.3444V18.664C92.3444 19.4 92.1684 20.056 91.8164 20.632C91.475 21.2187 90.995 21.6773 90.3764 22.008C89.7684 22.3493 89.0697 22.52 88.2804 22.52ZM88.1524 17.672C88.707 17.672 89.2084 17.5333 89.6564 17.256C90.1044 16.968 90.4617 16.5893 90.7284 16.12C91.0057 15.64 91.1444 15.1173 91.1444 14.552C91.1444 13.9867 91.0057 13.4693 90.7284 13C90.4617 12.52 90.1044 12.1413 89.6564 11.864C89.2084 11.576 88.707 11.432 88.1524 11.432C87.587 11.432 87.075 11.576 86.6164 11.864C86.1577 12.1413 85.795 12.5147 85.5284 12.984C85.2724 13.4533 85.1444 13.976 85.1444 14.552C85.1444 15.1173 85.2724 15.64 85.5284 16.12C85.795 16.5893 86.1524 16.968 86.6004 17.256C87.059 17.5333 87.5764 17.672 88.1524 17.672ZM94.8101 19V6.888H96.0101V12.088L95.7381 12.024C95.9515 11.4693 96.2981 11.032 96.7781 10.712C97.2688 10.392 97.8341 10.232 98.4741 10.232C99.0821 10.232 99.6261 10.3707 100.106 10.648C100.597 10.9253 100.981 11.3093 101.258 11.8C101.546 12.28 101.69 12.824 101.69 13.432V19H100.49V13.896C100.49 13.3733 100.394 12.9307 100.202 12.568C100.01 12.2053 99.7435 11.928 99.4021 11.736C99.0715 11.5333 98.6928 11.432 98.2661 11.432C97.8395 11.432 97.4555 11.5333 97.1141 11.736C96.7728 11.928 96.5008 12.2107 96.2981 12.584C96.1061 12.9467 96.0101 13.384 96.0101 13.896V19H94.8101ZM107.262 19.096C106.494 19.096 105.902 18.872 105.486 18.424C105.07 17.976 104.862 17.336 104.862 16.504V11.624H103.278V10.424H103.678C104.041 10.424 104.329 10.3067 104.542 10.072C104.755 9.82667 104.862 9.52267 104.862 9.16V8.44H106.062V10.424H107.95V11.624H106.062V16.504C106.062 16.792 106.105 17.048 106.19 17.272C106.275 17.4853 106.419 17.656 106.622 17.784C106.835 17.912 107.118 17.976 107.47 17.976C107.555 17.976 107.657 17.9707 107.774 17.96C107.891 17.9493 107.993 17.9387 108.078 17.928V19C107.95 19.032 107.806 19.0533 107.646 19.064C107.486 19.0853 107.358 19.096 107.262 19.096ZM117.24 19.192C116.504 19.192 115.837 19.0267 115.24 18.696C114.653 18.3547 114.211 17.8747 113.912 17.256L114.104 17.08V19H112.904V6.888H114.104V12.344L113.912 12.008C114.253 11.464 114.707 11.032 115.272 10.712C115.848 10.392 116.504 10.232 117.24 10.232C118.051 10.232 118.771 10.4293 119.4 10.824C120.04 11.208 120.541 11.736 120.904 12.408C121.277 13.08 121.464 13.848 121.464 14.712C121.464 15.5653 121.277 16.3333 120.904 17.016C120.541 17.688 120.04 18.2213 119.4 18.616C118.771 19 118.051 19.192 117.24 19.192ZM117.176 17.992C117.752 17.992 118.264 17.848 118.712 17.56C119.171 17.272 119.528 16.8827 119.784 16.392C120.051 15.8907 120.184 15.3307 120.184 14.712C120.184 14.0827 120.051 13.5227 119.784 13.032C119.528 12.5413 119.171 12.152 118.712 11.864C118.264 11.576 117.752 11.432 117.176 11.432C116.6 11.432 116.077 11.576 115.608 11.864C115.149 12.152 114.781 12.5467 114.504 13.048C114.237 13.5387 114.104 14.0933 114.104 14.712C114.104 15.3307 114.237 15.8907 114.504 16.392C114.781 16.8827 115.149 17.272 115.608 17.56C116.077 17.848 116.6 17.992 117.176 17.992ZM123.596 22.52C123.425 22.52 123.249 22.504 123.068 22.472C122.897 22.4507 122.726 22.408 122.556 22.344V21.224C122.662 21.2347 122.796 21.2507 122.956 21.272C123.126 21.304 123.297 21.32 123.468 21.32C123.99 21.32 124.39 21.208 124.668 20.984C124.945 20.7707 125.217 20.3547 125.484 19.736L126.028 18.456L125.996 19.512L122.364 10.424H123.66L126.636 17.928H126.299L129.26 10.424H130.588L126.668 20.088C126.497 20.504 126.278 20.8987 126.012 21.272C125.756 21.6453 125.43 21.944 125.036 22.168C124.641 22.4027 124.161 22.52 123.596 22.52ZM141.196 22.312C140.258 22.312 139.383 22.1413 138.572 21.8C137.772 21.4693 137.068 21 136.46 20.392C135.852 19.784 135.378 19.08 135.036 18.28C134.706 17.4693 134.54 16.6 134.54 15.672C134.54 14.744 134.711 13.88 135.052 13.08C135.394 12.28 135.863 11.5813 136.46 10.984C137.068 10.3867 137.778 9.92267 138.588 9.592C139.399 9.25067 140.268 9.08 141.196 9.08C142.156 9.08 143.042 9.26133 143.852 9.624C144.663 9.976 145.362 10.4613 145.948 11.08C146.546 11.688 147.004 12.3813 147.324 13.16C147.655 13.9387 147.82 14.7547 147.82 15.608C147.82 16.28 147.714 16.872 147.5 17.384C147.298 17.8853 146.999 18.28 146.604 18.568C146.21 18.856 145.735 19 145.18 19C144.85 19 144.535 18.9413 144.236 18.824C143.938 18.696 143.682 18.52 143.468 18.296C143.266 18.0613 143.127 17.784 143.052 17.464L143.308 17.672C143.138 17.96 142.924 18.2053 142.668 18.408C142.423 18.6 142.146 18.7493 141.836 18.856C141.527 18.952 141.191 19 140.828 19C140.21 19 139.65 18.8507 139.148 18.552C138.658 18.2533 138.268 17.848 137.98 17.336C137.692 16.824 137.548 16.2427 137.548 15.592C137.548 14.9413 137.692 14.36 137.98 13.848C138.268 13.336 138.658 12.9307 139.148 12.632C139.65 12.3227 140.21 12.168 140.828 12.168C141.351 12.168 141.826 12.2747 142.252 12.488C142.69 12.7013 143.036 13 143.292 13.384L143.18 13.576V12.328H144.22V16.744C144.22 17.1387 144.306 17.4267 144.476 17.608C144.658 17.7893 144.898 17.88 145.196 17.88C145.644 17.88 145.991 17.6933 146.236 17.32C146.492 16.9467 146.62 16.3867 146.62 15.64C146.62 14.872 146.487 14.1573 146.22 13.496C145.954 12.8347 145.58 12.2587 145.1 11.768C144.62 11.2773 144.05 10.8933 143.388 10.616C142.727 10.3387 141.996 10.2 141.196 10.2C140.418 10.2 139.692 10.3387 139.02 10.616C138.359 10.8827 137.783 11.2613 137.292 11.752C136.802 12.2427 136.418 12.8187 136.14 13.48C135.874 14.1413 135.74 14.8667 135.74 15.656C135.74 16.424 135.868 17.144 136.124 17.816C136.391 18.4773 136.764 19.0587 137.244 19.56C137.735 20.072 138.316 20.472 138.988 20.76C139.66 21.048 140.407 21.192 141.228 21.192C141.708 21.192 142.172 21.1387 142.62 21.032C143.068 20.936 143.474 20.7867 143.836 20.584L144.348 21.544C143.442 22.056 142.391 22.312 141.196 22.312ZM140.876 17.88C141.292 17.88 141.66 17.7787 141.98 17.576C142.3 17.3733 142.551 17.1013 142.732 16.76C142.924 16.408 143.02 16.0133 143.02 15.576C143.02 14.9147 142.818 14.376 142.412 13.96C142.007 13.5333 141.495 13.32 140.876 13.32C140.471 13.32 140.103 13.4213 139.772 13.624C139.452 13.816 139.202 14.0827 139.02 14.424C138.839 14.7653 138.748 15.1547 138.748 15.592C138.748 16.0187 138.839 16.408 139.02 16.76C139.212 17.1013 139.468 17.3733 139.788 17.576C140.108 17.7787 140.471 17.88 140.876 17.88ZM149.752 19V7.08H153.672C154.856 7.08 155.885 7.32533 156.76 7.816C157.634 8.296 158.312 8.984 158.792 9.88C159.272 10.7653 159.512 11.816 159.512 13.032C159.512 14.2373 159.272 15.288 158.792 16.184C158.312 17.08 157.634 17.7733 156.76 18.264C155.885 18.7547 154.856 19 153.672 19H149.752ZM151.032 17.8H153.672C154.589 17.8 155.384 17.608 156.056 17.224C156.728 16.8293 157.245 16.2747 157.608 15.56C157.981 14.8453 158.168 14.0027 158.168 13.032C158.168 12.0613 157.981 11.224 157.608 10.52C157.234 9.80533 156.712 9.256 156.04 8.872C155.368 8.47733 154.578 8.28 153.672 8.28H151.032V17.8ZM159.851 22.52C159.776 22.52 159.675 22.5147 159.547 22.504C159.408 22.4933 159.296 22.4773 159.211 22.456V21.352C159.435 21.384 159.659 21.4 159.883 21.4C160.32 21.4 160.688 21.2667 160.987 21C161.296 20.7333 161.451 20.3333 161.451 19.8V10.424H162.651V19.8C162.651 20.3867 162.523 20.8827 162.267 21.288C162.011 21.6933 161.669 21.9973 161.243 22.2C160.827 22.4133 160.363 22.52 159.851 22.52ZM161.451 8.84V7.08H162.651V8.84H161.451ZM167.587 19.192C167.043 19.192 166.558 19.0907 166.131 18.888C165.704 18.6747 165.368 18.3867 165.123 18.024C164.878 17.6613 164.755 17.2453 164.755 16.776C164.755 16.328 164.851 15.9227 165.043 15.56C165.235 15.1867 165.534 14.872 165.939 14.616C166.344 14.36 166.862 14.1787 167.491 14.072L170.851 13.512V14.6L167.779 15.112C167.16 15.2187 166.712 15.416 166.435 15.704C166.168 15.992 166.035 16.3333 166.035 16.728C166.035 17.112 166.184 17.4373 166.483 17.704C166.792 17.9707 167.187 18.104 167.667 18.104C168.254 18.104 168.766 17.9813 169.203 17.736C169.64 17.48 169.982 17.1387 170.227 16.712C170.472 16.2853 170.595 15.8107 170.595 15.288V13.112C170.595 12.6 170.408 12.184 170.035 11.864C169.662 11.544 169.176 11.384 168.579 11.384C168.056 11.384 167.598 11.5173 167.203 11.784C166.808 12.04 166.515 12.376 166.323 12.792L165.235 12.2C165.395 11.8373 165.646 11.5067 165.987 11.208C166.339 10.9093 166.739 10.6747 167.187 10.504C167.635 10.3227 168.099 10.232 168.579 10.232C169.208 10.232 169.763 10.3547 170.243 10.6C170.734 10.8453 171.112 11.1867 171.379 11.624C171.656 12.0507 171.795 12.5467 171.795 13.112V19H170.595V17.288L170.771 17.464C170.622 17.784 170.387 18.0773 170.067 18.344C169.758 18.6 169.39 18.808 168.963 18.968C168.547 19.1173 168.088 19.192 167.587 19.192ZM174.263 19V6.888H175.463V12.088L175.191 12.024C175.405 11.4693 175.751 11.032 176.231 10.712C176.722 10.392 177.287 10.232 177.927 10.232C178.535 10.232 179.079 10.3707 179.559 10.648C180.05 10.9253 180.434 11.3093 180.711 11.8C180.999 12.28 181.143 12.824 181.143 13.432V19H179.943V13.896C179.943 13.3733 179.847 12.9307 179.655 12.568C179.463 12.2053 179.197 11.928 178.855 11.736C178.525 11.5333 178.146 11.432 177.719 11.432C177.293 11.432 176.909 11.5333 176.567 11.736C176.226 11.928 175.954 12.2107 175.751 12.584C175.559 12.9467 175.463 13.384 175.463 13.896V19H174.263ZM183.435 19V10.424H184.635V19H183.435ZM183.435 8.84V7.08H184.635V8.84H183.435ZM190.371 19.096C189.603 19.096 189.011 18.872 188.595 18.424C188.179 17.976 187.971 17.336 187.971 16.504V11.624H186.387V10.424H186.787C187.15 10.424 187.438 10.3067 187.651 10.072C187.865 9.82667 187.971 9.52267 187.971 9.16V8.44H189.171V10.424H191.059V11.624H189.171V16.504C189.171 16.792 189.214 17.048 189.299 17.272C189.385 17.4853 189.529 17.656 189.731 17.784C189.945 17.912 190.227 17.976 190.579 17.976C190.665 17.976 190.766 17.9707 190.883 17.96C191.001 17.9493 191.102 17.9387 191.187 17.928V19C191.059 19.032 190.915 19.0533 190.755 19.064C190.595 19.0853 190.467 19.096 190.371 19.096ZM193.711 19V17.24H194.991V19H193.711ZM197.873 19V10.424H199.073V12.088L198.801 12.024C199.014 11.4693 199.361 11.032 199.841 10.712C200.331 10.392 200.897 10.232 201.537 10.232C202.145 10.232 202.689 10.3707 203.169 10.648C203.659 10.9253 204.043 11.3093 204.321 11.8C204.609 12.28 204.753 12.824 204.753 13.432V19H203.553V13.896C203.553 13.3733 203.457 12.9307 203.265 12.568C203.083 12.2053 202.822 11.928 202.481 11.736C202.15 11.5333 201.766 11.432 201.329 11.432C200.891 11.432 200.502 11.5333 200.161 11.736C199.819 11.928 199.553 12.2107 199.361 12.584C199.169 12.9467 199.073 13.384 199.073 13.896V19H197.873ZM210.949 19.192C210.149 19.192 209.423 19 208.773 18.616C208.133 18.2213 207.626 17.6827 207.253 17C206.879 16.3173 206.693 15.544 206.693 14.68C206.693 13.816 206.874 13.0533 207.237 12.392C207.599 11.72 208.09 11.192 208.709 10.808C209.338 10.424 210.042 10.232 210.821 10.232C211.439 10.232 211.989 10.3493 212.469 10.584C212.959 10.808 213.375 11.1173 213.717 11.512C214.058 11.896 214.319 12.3333 214.501 12.824C214.682 13.304 214.773 13.8 214.773 14.312C214.773 14.4187 214.767 14.5413 214.757 14.68C214.746 14.808 214.73 14.9413 214.709 15.08H207.461V13.96H214.021L213.445 14.44C213.541 13.8533 213.471 13.3307 213.237 12.872C213.013 12.4027 212.687 12.0347 212.261 11.768C211.834 11.4907 211.354 11.352 210.821 11.352C210.287 11.352 209.791 11.4907 209.333 11.768C208.885 12.0453 208.533 12.4347 208.277 12.936C208.021 13.4267 207.919 14.0133 207.973 14.696C207.919 15.3787 208.026 15.976 208.293 16.488C208.57 16.9893 208.943 17.3787 209.413 17.656C209.893 17.9333 210.405 18.072 210.949 18.072C211.578 18.072 212.106 17.9227 212.533 17.624C212.959 17.3253 213.306 16.952 213.573 16.504L214.597 17.048C214.426 17.432 214.165 17.7893 213.812 18.12C213.461 18.44 213.039 18.7013 212.549 18.904C212.069 19.096 211.535 19.192 210.949 19.192ZM220.168 19.096C219.4 19.096 218.808 18.872 218.392 18.424C217.976 17.976 217.768 17.336 217.768 16.504V11.624H216.184V10.424H216.584C216.947 10.424 217.235 10.3067 217.448 10.072C217.662 9.82667 217.768 9.52267 217.768 9.16V8.44H218.968V10.424H220.856V11.624H218.968V16.504C218.968 16.792 219.011 17.048 219.096 17.272C219.182 17.4853 219.326 17.656 219.528 17.784C219.742 17.912 220.024 17.976 220.376 17.976C220.462 17.976 220.563 17.9707 220.68 17.96C220.798 17.9493 220.899 17.9387 220.984 17.928V19C220.856 19.032 220.712 19.0533 220.552 19.064C220.392 19.0853 220.264 19.096 220.168 19.096Z" fill="#393E30"/>
</svg>
