<svg width="30" height="30" viewBox="0 0 30 30" fill="none" xmlns="http://www.w3.org/2000/svg">
<path d="M3.75 6.25V5.3125C3.50136 5.3125 3.2629 5.41127 3.08709 5.58709C2.91127 5.7629 2.8125 6.00136 2.8125 6.25H3.75ZM26.25 6.25H27.1875C27.1875 6.00136 27.0887 5.7629 26.9129 5.58709C26.7371 5.41127 26.4986 5.3125 26.25 5.3125V6.25ZM3.75 7.1875H26.25V5.3125H3.75V7.1875ZM25.3125 6.25V21.25H27.1875V6.25H25.3125ZM23.75 22.8125H6.25V24.6875H23.75V22.8125ZM4.6875 21.25V6.25H2.8125V21.25H4.6875ZM6.25 22.8125C5.3875 22.8125 4.6875 22.1125 4.6875 21.25H2.8125C2.8125 22.1617 3.17466 23.036 3.81932 23.6807C4.46398 24.3253 5.33832 24.6875 6.25 24.6875V22.8125ZM25.3125 21.25C25.3125 22.1125 24.6125 22.8125 23.75 22.8125V24.6875C24.6617 24.6875 25.536 24.3253 26.1807 23.6807C26.8253 23.036 27.1875 22.1617 27.1875 21.25H25.3125Z" fill="#393E30"/>
<path d="M3.75 6.25L15 17.5L26.25 6.25" stroke="#393E30" stroke-width="1.5" stroke-linecap="round" stroke-linejoin="round"/>
</svg>
