<svg width="31" height="31" viewBox="0 0 31 31" fill="none" xmlns="http://www.w3.org/2000/svg">
<path fill-rule="evenodd" clip-rule="evenodd" d="M4.78571 0.5H26.2143C27.3509 0.5 28.441 0.951529 29.2447 1.75526C30.0485 2.55898 30.5 3.64907 30.5 4.78571V26.2143C30.5 27.3509 30.0485 28.441 29.2447 29.2447C28.441 30.0485 27.3509 30.5 26.2143 30.5H4.78571C3.64907 30.5 2.55898 30.0485 1.75526 29.2447C0.951529 28.441 0.5 27.3509 0.5 26.2143V4.78571C0.5 3.64907 0.951529 2.55898 1.75526 1.75526C2.55898 0.951529 3.64907 0.5 4.78571 0.5Z" stroke="#626A53" stroke-linecap="round" stroke-linejoin="round"/>
<path d="M30.5 21.9285L24.0714 15.4999L17.6429 21.8964M26.2143 30.4999L6.92857 11.2142L0.5 17.6428" stroke="#626A53" stroke-linecap="round" stroke-linejoin="round"/>
<path d="M23.0003 10.1429C24.1837 10.1429 25.1431 9.1835 25.1431 8.00003C25.1431 6.81657 24.1837 5.85718 23.0003 5.85718C21.8168 5.85718 20.8574 6.81657 20.8574 8.00003C20.8574 9.1835 21.8168 10.1429 23.0003 10.1429Z" fill="#626A53"/>
</svg>
