<svg width="150" height="149" viewBox="0 0 150 149" fill="none" xmlns="http://www.w3.org/2000/svg" xmlns:xlink="http://www.w3.org/1999/xlink">
<path d="M60 5H144V89C144 119.928 118.928 145 88 145H4V61C4 30.0721 29.0721 5 60 5Z" stroke="#E07A5F" stroke-width="8"/>
<path d="M68 23H128V82C128 106.853 107.853 127 83 127H21V70C21 44.0426 42.0426 23 68 23Z" stroke="#E07A5F" stroke-width="8"/>
<path d="M68.5893 99.952C67.2746 99.952 66.0506 99.68 64.9173 99.136C63.8293 98.6373 63.0133 97.6853 62.4693 96.28C60.928 95.3733 59.7946 94.4213 59.0693 93.424C58.344 92.3813 58.0266 91.0893 58.1173 89.548L60.4973 56.296C59.4546 55.616 58.5706 54.868 57.8453 54.052C57.1653 53.1907 56.8253 52.3293 56.8253 51.468C56.8253 51.06 56.9613 50.788 57.2333 50.652C57.5053 50.4707 57.8 50.38 58.1173 50.38C59.6133 50.38 61.3133 50.3347 63.2173 50.244C65.1213 50.1533 66.9346 50.0627 68.6573 49.972C70.4253 49.8813 71.8533 49.836 72.9413 49.836C76.704 49.836 79.9 50.3347 82.5293 51.332C85.1586 52.284 87.2666 53.5307 88.8533 55.072C90.4853 56.6133 91.664 58.2227 92.3893 59.9C93.16 61.5773 93.5453 63.1413 93.5453 64.592C93.5453 67.2667 93.0693 70.0093 92.1173 72.82C91.1653 75.5853 89.896 78.2827 88.3093 80.912C86.768 83.5413 85.0453 86.012 83.1413 88.324C81.2826 90.636 79.4013 92.6533 77.4973 94.376C75.6386 96.0987 73.916 97.4587 72.3293 98.456C70.788 99.4533 69.5413 99.952 68.5893 99.952ZM69.8133 71.12L68.2493 91.656C70.108 90.024 71.8986 88.1427 73.6213 86.012C75.344 83.836 76.8626 81.5693 78.1773 79.212C79.5373 76.8093 80.6026 74.4293 81.3733 72.072C82.1893 69.6693 82.5973 67.448 82.5973 65.408C82.5973 63.9573 82.348 62.6427 81.8493 61.464C81.396 60.24 80.648 59.22 79.6053 58.404C77.6106 58.404 75.5026 58.4947 73.2813 58.676C71.06 58.812 69.3146 58.9027 68.0453 58.948C69.3146 61.1693 69.9493 64.184 69.9493 67.992C69.9493 68.4907 69.9266 69.012 69.8813 69.556C69.8813 70.0547 69.8586 70.576 69.8133 71.12Z" fill="#E07A5F"/>
<mask id="path-4-inside-1_343_230" fill="white">
<path d="M0 62H25V88H0V62Z"/>
</mask>
<path d="M0 62H25V88H0V62Z" fill="#E9E4D4"/>
<path d="M0 62V70H25V62V54H0V62ZM25 88V80H0V88V96H25V88Z" fill="#E07A5F" mask="url(#path-4-inside-1_343_230)"/>
<mask id="path-6-inside-2_343_230" fill="white">
<path d="M54 149V123H80V149H54Z"/>
</mask>
<path d="M54 149V123H80V149H54Z" fill="#E9E4D4"/>
<path d="M54 149H62V123H54H46V149H54ZM80 123H72V149H80H88V123H80Z" fill="#E07A5F" mask="url(#path-6-inside-2_343_230)"/>
<path d="M119.201 32.6875H110.25L141.578 1H149.25V7.09375L119.201 40V32.6875Z" fill="#E9E4D4"/>
</svg>
