<svg width="53" height="52" viewBox="0 0 53 52" fill="none" xmlns="http://www.w3.org/2000/svg">
<rect x="1" y="1" width="50.445" height="50.0072" rx="15" stroke="white" stroke-width="2"/>
<path d="M33.445 20.5905C33.4466 18.9198 32.8964 17.2954 31.8799 15.9695C30.8635 14.6436 29.4376 13.6905 27.8238 13.2583C26.21 12.826 24.4987 12.9387 22.9555 13.5789C21.4124 14.2192 20.1239 15.3511 19.2901 16.7989C19.0028 17.2968 18.9251 17.8884 19.074 18.4437C19.2229 18.9989 19.5863 19.4723 20.0842 19.7596C20.5822 20.0469 21.1738 20.1247 21.7291 19.9758C22.2843 19.8268 22.7577 19.4634 23.045 18.9655C23.3304 18.4712 23.741 18.0607 24.2355 17.7754C24.7299 17.4902 25.2908 17.3402 25.8616 17.3405C26.7236 17.3405 27.5503 17.6829 28.1597 18.2924C28.7692 18.9019 29.1116 19.7286 29.1116 20.5905C29.1116 21.4525 28.7692 22.2791 28.1597 22.8886C27.5503 23.4981 26.7236 23.8405 25.8616 23.8405H25.8551C25.7155 23.8553 25.5776 23.8836 25.4435 23.925C25.2979 23.9394 25.1542 23.9684 25.0145 24.0117C24.8957 24.0769 24.7832 24.153 24.6786 24.2392C24.5541 24.307 24.4366 24.3868 24.3276 24.4775C24.2302 24.594 24.1452 24.7203 24.0741 24.8545C23.9952 24.9522 23.9249 25.0566 23.864 25.1665C23.8164 25.3158 23.7852 25.4698 23.7708 25.6259C23.7342 25.7504 23.7088 25.8781 23.695 26.0072V28.1739L23.6993 28.1977V29.2615C23.7005 29.8354 23.9292 30.3854 24.3354 30.7908C24.7416 31.1962 25.2921 31.4239 25.866 31.4239H25.8725C26.157 31.4233 26.4386 31.3667 26.7013 31.2573C26.964 31.1479 27.2025 30.9878 27.4033 30.7862C27.6041 30.5846 27.7632 30.3454 27.8715 30.0823C27.9799 29.8192 28.0354 29.5374 28.0348 29.2529L28.0305 27.8185C29.5905 27.3565 30.9599 26.4037 31.9353 25.1016C32.9107 23.7995 33.4402 22.2175 33.445 20.5905ZM24.3385 35.3022C24.0342 35.6039 23.8263 35.9891 23.741 36.4091C23.6556 36.829 23.6967 37.2648 23.8591 37.6614C24.0214 38.0579 24.2977 38.3975 24.653 38.637C25.0083 38.8766 25.4266 39.0054 25.8551 39.0072C26.4292 39.0014 26.9795 38.7766 27.3935 38.3789C27.7958 37.9679 28.0211 37.4156 28.0211 36.8405C28.0211 36.2654 27.7958 35.7132 27.3935 35.3022C26.9788 34.9156 26.4329 34.7007 25.866 34.7007C25.299 34.7007 24.7532 34.9156 24.3385 35.3022Z" fill="#F6F7F3"/>
</svg>
