<svg width="52" height="52" viewBox="0 0 52 52" fill="none" xmlns="http://www.w3.org/2000/svg">
<rect x="0.5" y="0.5" width="51" height="51" rx="15.5" stroke="#7A8568"/>
<g clip-path="url(#clip0_434_190)">
<path d="M31.9583 28.8333H30.8392L30.4425 28.4508C31.8308 26.8358 32.6667 24.7392 32.6667 22.4583C32.6667 17.3725 28.5442 13.25 23.4583 13.25C18.3725 13.25 14.25 17.3725 14.25 22.4583C14.25 27.5442 18.3725 31.6667 23.4583 31.6667C25.7392 31.6667 27.8358 30.8308 29.4508 29.4425L29.8333 29.8392V30.9583L36.9167 38.0275L39.0275 35.9167L31.9583 28.8333ZM23.4583 28.8333C19.9308 28.8333 17.0833 25.9858 17.0833 22.4583C17.0833 18.9308 19.9308 16.0833 23.4583 16.0833C26.9858 16.0833 29.8333 18.9308 29.8333 22.4583C29.8333 25.9858 26.9858 28.8333 23.4583 28.8333Z" fill="#7A8568"/>
</g>
<defs>
<clipPath id="clip0_434_190">
<rect width="34" height="34" fill="white" transform="translate(10 9)"/>
</clipPath>
</defs>
</svg>
